<?xml version="1.0" standalone="no"?>
<!DOCTYPE svg PUBLIC "-//W3C//DTD SVG 20010904//EN"
 "http://www.w3.org/TR/2001/REC-SVG-20010904/DTD/svg10.dtd">
<svg version="1.0" xmlns="http://www.w3.org/2000/svg"
 width="1024.000000pt" height="1024.000000pt" viewBox="0 0 1024.000000 1024.000000"
 preserveAspectRatio="xMidYMid meet">
<metadata>
Created by potrace 1.11, written by Peter Selinger 2001-2013
</metadata>
<g transform="translate(0.000000,1024.000000) scale(0.100000,-0.100000)"
fill="#000000" stroke="none">
<path d="M2700 5115 l0 -3556 1393 4 c1443 4 1441 4 1707 48 275 46 472 108
705 224 202 101 319 183 468 325 368 352 544 779 564 1365 13 420 -75 772
-272 1076 -123 190 -305 370 -497 492 -109 69 -299 155 -410 186 -27 8 -48 16
-48 20 0 3 46 29 102 56 412 201 729 546 861 935 57 168 71 267 71 505 0 159
-5 253 -17 339 -62 411 -214 728 -469 972 -347 333 -827 507 -1523 554 -87 5
-671 10 -1392 10 l-1243 0 0 -3555z m2505 2775 c361 -23 599 -88 800 -218 205
-133 333 -339 379 -612 42 -247 26 -496 -44 -688 -55 -148 -130 -261 -251
-377 -176 -169 -391 -273 -671 -327 -109 -21 -141 -22 -945 -25 l-833 -4 0
1131 0 1130 703 0 c386 0 774 -5 862 -10z m410 -3037 c264 -55 430 -126 586
-251 233 -187 358 -458 390 -846 36 -439 -76 -794 -330 -1047 -194 -194 -446
-313 -758 -359 -130 -19 -186 -20 -1000 -20 l-863 0 0 1276 0 1275 938 -4
c899 -4 941 -5 1037 -24z"/>
</g>
</svg>
